<svg xmlns="http://www.w3.org/2000/svg" width="785.465" height="223.414" viewBox="0 0 785.465 223.414">
  <g id="Group_63599" data-name="Group 63599" transform="translate(-1165.714 -1979)">
    <path id="Path_86883" data-name="Path 86883" d="M-11161.691-2292.2c-24.257,27.307-49.374,19.159-89.352,4.071s-78.515,19.9-114.708,12.791-27.7-38.828-27.868-38.861c4.971.218,7.388-1.222,7.559-1.32,12.174-5.787,18.035-1.861,18.035-1.861s13.146,8.653,26.282,3.181,23.549,0,23.549,0,16.669,3.032,11.033-12.839-14.427,6.106-28.216-1.96-56.255,10.163-48.926-13.777-.564-75.035,7.324-78.979c11.88-5.439,12.677,3.359,12.677,3.359s5.915,59.7-1.449,74.847-37.133,6.234-56.35,5.668-16.06,30.152-16.06,30.152,2.154,26.372-19.448,30.327-58.959.287-77.16-8.2,21.983-33.532,29.987-68.318-27.574-36.308-27.574-36.308-58.387-1.958-86.781-3.039-34.553,45.921-40.018,49.614.526-10.267.526-10.267,3.637-7.656,7.033-29.525,33.692-20.915,33.692-20.915,107.766-.338,131.7,0,31.787,6.612,50.7,14.378,16.706-47.342,16.706-47.342-.559-8.686-3.907-7.382a5.428,5.428,0,0,0-3.312,4.748c-6.814,31.542-1.437,57.8,5.091,59.809,26.08,4.78,16.26-73.806,16.282-73.764s-.735-4.576-4.485-5.274c-3.344-.55-3.428,2.145-3.428,2.145s-10.854,89.3,3.428,98.113,11.981-78.481,8.822-92.1,0-15.745,0-15.745,13.3-14.746,14.251,56.027-16.071,63.248-38.3,65.439-17.652-30.491-17.372-40.312,8.62-35.041-9.323-51.387-123.764,4.867-148.506,6.87-51.668-14.154-60.5-19.338-6.4-19.494-6.4-19.494-.355-4.937-2.647-4.469-2.534,1.943-3.859,12.38-3.522,59.791-3.522,59.791-1.974,56.5,3.522,60.387,4.934-5.533,4.934-5.533-.613-35.77-1.074-47.839,9.111-53.716-.868-58.645-13.921,4.018-18.379,15.653-11.279,9.215-8.554,4.769,4.67-1.87,4.639-1.775c.376,1.308,2.366,7.138,2.3,7.268,4.539,16.474,8.094,62.659,3.988,60.464s-4.595-19.143-4.595-19.143-.638-10.2,2.784-10.306,8.116.938,7.569,21.389,10.127,71.676,10,78.937-25.423,4.12-25.423,4.12-7.566-.379-6.609-3.608,7.884-4.268,7.884-4.268,37.925-5.848,48.51,1.327-1.1,9.854-1.118,9.89c-41.557,9.5-73.131,3.273-73.365,3.1-76.47-20.274-58.424,2.015-117.617,11.445s-57.089-30.87-57.089-30.87-1.665-10.584,6.182-6.413c-.7,2.1-13.088,13.515-13.088,13.515" transform="translate(13112.122 4455.314)" fill="none" stroke="#a9d0e3" stroke-width="2"/>
    <path id="Path_86884" data-name="Path 86884" d="M-11411.6-2319.6v-4.082s-6.071-2.621-2.907-9.987,4.8,4.8,4.8,4.8a7.353,7.353,0,0,1-1.6,4.531C-11411.246-2324.333-11411.6-2319.6-11411.6-2319.6Z" transform="translate(13129.745 4461.285)" fill="none" stroke="#a9d0e3" stroke-linecap="round" stroke-linejoin="round" stroke-width="2"/>
    <g id="Rectangle_17275" data-name="Rectangle 17275" transform="translate(1618 1986)" fill="none" stroke="#a9d0e3" stroke-width="2">
      <rect width="24" height="26" rx="5" stroke="none"/>
      <rect x="1" y="1" width="22" height="24" rx="4" fill="none"/>
    </g>
    <g id="Rectangle_17276" data-name="Rectangle 17276" transform="translate(1617 1979)" fill="none" stroke="#a9d0e3" stroke-width="2">
      <rect width="26" height="9" rx="4" stroke="none"/>
      <rect x="1" y="1" width="24" height="7" rx="3" fill="none"/>
    </g>
    <path id="Path_86885" data-name="Path 86885" d="M-11870.788-2331.971l-77.384,77.384" transform="translate(13114.593 4456.294)" fill="none" stroke="#a9d0e3" stroke-width="2"/>
    <g id="Ellipse_63106" data-name="Ellipse 63106" transform="translate(1239 2120)" fill="#fff" stroke="#a9d0e3" stroke-width="2">
      <circle cx="4" cy="4" r="4" stroke="none"/>
      <circle cx="4" cy="4" r="3" fill="none"/>
    </g>
  </g>
</svg>
