<svg xmlns="http://www.w3.org/2000/svg" width="88" height="58.765" viewBox="0 0 88 58.765">
  <path id="Path_86915" data-name="Path 86915" d="M73.018,94.8l-3.15-3.249-.689.492-.59.394-.394.492-.2.492-.2.492V94.4l.1.59.3.3.3.393.394.3.59.1h.59l.59-.1.788-.2.788-.393.787-.591Zm5.118-.395,3.938,4.036H76.66l-1.279-1.477-.689.492L74,97.846l-.689.3-.689.1-.689.1h-.689l-.689.1h-.689l-.886-.1-.788-.1-.886-.2-.886-.3-.788-.394-.788-.59-.492-.59-.492-.788-.3-.985V93.32l.2-.886.394-.886.59-.788.689-.788.788-.59.886-.59-.492-.492-.3-.3-.394-.393-.3-.394-.2-.394-.1-.393-.1-.59-.1-.689.2-.984.394-.886.59-.788L67.208,82l.886-.394.984-.2.984-.2h1.871l.886.2.984.2.788.394.787.492.689.689.394.788.1.984-.1.788-.2.788-.3.59-.394.492-.492.492-.59.394-.689.492-.689.492,2.658,2.56.1-.3.1-.1.1-.1H80.2l-.1.2-.2.3-.394.492-.393.492-.3.492-.3.492-.3.3-.1.1Zm-5.512-9.744-.1-.3-.1-.3-.2-.2-.2-.3-.3-.1-.3-.1H70.361l-.3.1-.3.1-.2.1-.2.2-.2.2-.2.3v.591l.2.394.1.3.3.2.2.3.3.3.2.2.3.2.394-.3.492-.2.394-.3.3-.3.2-.3.1-.3.1-.2ZM80.6,63.2l-.2.788c-1.771,3.642-2.559,5.807-7.382,9.253A18.571,18.571,0,0,1,62.289,76.29c-3.347,0-6.5-.394-8.957-2.658-2.756-2.56-3.248-7.186-.393-10.828,2.559-3.15,5.315-3.248,9.253-3.15,1.575-.2,2.264-.492,2.657-2.067-.394-1.673-1.083-1.87-2.657-2.067H61.5c-4.036-.1-8.564.59-11.714,3.938-3.248,3.544-3.937,8.268-2.658,12.8,1.477,4.725,6,6.792,10.433,7.579a36.556,36.556,0,0,0,4.627.3V98.437H46.835A10.3,10.3,0,0,1,36.992,88.5V39.673l25.691.1A17.855,17.855,0,0,1,76.169,45.48a18.473,18.473,0,0,1,3.937,7.383l.3,1.378.2,1.279V39.771h26.478c10.335,0,17.817,8.859,17.916,17.127,0,9.843-6.989,19.392-17.718,19.392-4.823,0-8.663.3-11.32-4.036-1.771-2.855-1.771-6.1.2-9.45,1.673-2.756,4.036-3.051,8.071-3.15,3.642-.2,3.347-3.642-.2-3.937C98.317,55.323,93.1,58.178,91.23,63c-1.674,4.429-1.181,8.957,2.46,13.289,3.15,3.74,7.383,3.838,12.3,3.838l-.3,18.309-14.864-.1c-5.709,0-10.237-4.527-10.237-9.45V63.2Z" transform="translate(-36.992 -39.673)" fill="#e62658" fill-rule="evenodd"/>
</svg>
