<svg xmlns="http://www.w3.org/2000/svg" width="38.627" height="41.267" viewBox="0 0 38.627 41.267">
  <g id="Group_63594" data-name="Group 63594" transform="translate(-447.136 -1241.167)">
    <path id="Path_86886" data-name="Path 86886" d="M30.86,0A17.184,17.184,0,1,1,0,10.407" transform="matrix(0.07, 0.998, -0.998, 0.07, 476.261, 1244.624)" fill="none" stroke="#1375ff" stroke-width="3"/>
    <path id="Path_86887" data-name="Path 86887" d="M59.267,3.7A17.4,17.4,0,0,1,65.56,30.594" transform="translate(414.755 1243.139)" fill="none" stroke="#1375ff" stroke-width="3" stroke-dasharray="6"/>
    <path id="Path_86888" data-name="Path 86888" d="M-16.855-15.1a1.1,1.1,0,0,1-.82-.261,1.06,1.06,0,0,1-.253-.768,1.2,1.2,0,0,1,.164-.611,3.149,3.149,0,0,1,.447-.581l2.8-2.952a5.851,5.851,0,0,0,.9-1.193,2.216,2.216,0,0,0,.276-1.043q0-1.342-1.655-1.342a3.489,3.489,0,0,0-.887.119,3.609,3.609,0,0,0-.947.417.813.813,0,0,1-.738.1.9.9,0,0,1-.492-.462,1.038,1.038,0,0,1-.075-.693.947.947,0,0,1,.484-.6,5.233,5.233,0,0,1,1.431-.6,6.091,6.091,0,0,1,1.535-.2,4.079,4.079,0,0,1,2.691.783,2.748,2.748,0,0,1,.932,2.229,4,4,0,0,1-.44,1.826,7.819,7.819,0,0,1-1.438,1.886L-14.962-17H-11.5a.843.843,0,0,1,.969.939.85.85,0,0,1-.969.954Zm11.657.134a1.15,1.15,0,0,1-.85-.3,1.171,1.171,0,0,1-.3-.865v-.85H-9.685a1.432,1.432,0,0,1-.879-.246.88.88,0,0,1-.328-.753,1.493,1.493,0,0,1,.134-.6,4.64,4.64,0,0,1,.477-.783l3.861-5.62a1.819,1.819,0,0,1,.559-.574,1.362,1.362,0,0,1,.723-.186,1.032,1.032,0,0,1,.775.291,1.2,1.2,0,0,1,.283.872V-18.8h.552q1,0,1,.909t-1,.909H-4.08v.85a1.189,1.189,0,0,1-.291.865A1.1,1.1,0,0,1-5.2-14.969ZM-6.346-18.8v-3.473L-8.7-18.8Z" transform="translate(477.511 1283.101)" fill="#1477ff"/>
    <path id="Polygon_1" data-name="Polygon 1" d="M3.279,1.465A1,1,0,0,1,5,1.465L7.395,5.532a1,1,0,0,1-.862,1.507H1.748A1,1,0,0,1,.886,5.532Z" transform="translate(472.668 1241.167) rotate(90)" fill="#1476ff"/>
  </g>
</svg>
