<svg id="Group_4850" data-name="Group 4850" xmlns="http://www.w3.org/2000/svg" width="21.583" height="21.587" viewBox="0 0 21.583 21.587">
  <path id="Path_15813" data-name="Path 15813" d="M21.978,6.347a7.888,7.888,0,0,0-.5-2.619A5.53,5.53,0,0,0,18.317.569,7.908,7.908,0,0,0,15.7.068C14.543.013,14.176,0,11.245,0S7.947.013,6.8.063a7.89,7.89,0,0,0-2.619.5A5.267,5.267,0,0,0,2.263,1.813a5.315,5.315,0,0,0-1.244,1.91,7.909,7.909,0,0,0-.5,2.619C.462,7.5.449,7.865.449,10.8s.013,3.3.063,4.449a7.888,7.888,0,0,0,.5,2.619,5.529,5.529,0,0,0,3.159,3.159,7.91,7.91,0,0,0,2.619.5c1.151.051,1.518.063,4.449.063s3.3-.013,4.449-.063a7.886,7.886,0,0,0,2.619-.5,5.522,5.522,0,0,0,3.159-3.159,7.915,7.915,0,0,0,.5-2.619c.051-1.151.063-1.518.063-4.449S22.028,7.5,21.978,6.347Zm-1.944,8.814a5.917,5.917,0,0,1-.371,2,3.581,3.581,0,0,1-2.05,2.05,5.938,5.938,0,0,1-2,.371c-1.139.051-1.48.063-4.36.063s-3.226-.013-4.361-.063a5.914,5.914,0,0,1-2-.371,3.322,3.322,0,0,1-1.24-.806,3.356,3.356,0,0,1-.806-1.24,5.939,5.939,0,0,1-.371-2c-.051-1.139-.063-1.48-.063-4.361s.013-3.226.063-4.36a5.914,5.914,0,0,1,.371-2A3.281,3.281,0,0,1,3.65,3.2,3.351,3.351,0,0,1,4.89,2.4a5.942,5.942,0,0,1,2-.371c1.139-.051,1.48-.063,4.36-.063s3.226.013,4.361.063a5.917,5.917,0,0,1,2,.371,3.319,3.319,0,0,1,1.24.805,3.356,3.356,0,0,1,.806,1.24,5.941,5.941,0,0,1,.371,2c.051,1.139.063,1.48.063,4.36S20.084,14.022,20.034,15.161Zm0,0" transform="translate(-0.449 0)" fill="#fff"/>
  <path id="Path_15815" data-name="Path 15815" d="M130.495,124.5a5.546,5.546,0,1,0,5.546,5.546A5.547,5.547,0,0,0,130.495,124.5Zm0,9.143a3.6,3.6,0,1,1,3.6-3.6A3.6,3.6,0,0,1,130.495,133.643Zm0,0" transform="translate(-119.7 -119.25)" fill="#fff"/>
  <path id="Path_15814" data-name="Path 15814" d="M365.039,89.9a1.295,1.295,0,1,1-1.295-1.295A1.295,1.295,0,0,1,365.039,89.9Zm0,0" transform="translate(-347.183 -84.865)" fill="#fff"/>
</svg>
