<svg xmlns="http://www.w3.org/2000/svg" width="37.293" height="37.032" viewBox="0 0 37.293 37.032">
  <g id="Group_63597" data-name="Group 63597" transform="translate(-817.103 -1243.159)">
    <path id="Path_86892" data-name="Path 86892" d="M0,16.374l8.147,8.257S24.627,14.145,24.682,0C24.714.113,12.687-1.1,0,16.374Z" transform="translate(828.343 1244.509)" fill="none" stroke="#fda800" stroke-linecap="round" stroke-linejoin="round" stroke-width="2.7"/>
    <path id="Path_86893" data-name="Path 86893" d="M12.947,0S3.562.106,0,4.775c.055.05,6.947,2.091,6.947,2.091" transform="translate(821.393 1252.799)" fill="none" stroke="#fda800" stroke-linecap="round" stroke-linejoin="round" stroke-width="2.7"/>
    <path id="Path_86894" data-name="Path 86894" d="M0,0S9.443.132,12.886,4.643c-.053.049-6.713,2.021-6.713,2.021" transform="translate(844.884 1262.893) rotate(92)" fill="none" stroke="#fda800" stroke-linecap="round" stroke-linejoin="round" stroke-width="2.7"/>
    <g id="Path_86895" data-name="Path 86895" transform="matrix(0.719, -0.695, 0.695, 0.719, 817.104, 1273.866)" fill="none">
      <path d="M10.088,0a4.4,4.4,0,0,1,0,8.793C7.66,8.793-.253,5.863.006,4.781S7.66,0,10.088,0Z" stroke="none"/>
      <path d="M 10.09029960632324 2.69995641708374 C 9.682741165161133 2.711424827575684 8.208795547485352 3.113308906555176 5.979686737060547 4.145034790039062 C 5.606989860534668 4.317533016204834 5.260367393493652 4.485547542572021 4.940407752990723 4.646865844726562 C 5.244630813598633 4.764967918395996 5.573041915893555 4.887023448944092 5.925446510314941 5.011564254760742 C 8.155406951904297 5.799644470214844 9.661916732788086 6.093334674835205 10.08768653869629 6.093334674835205 C 11.02319622039795 6.093334674835205 11.7842960357666 5.332184791564941 11.7842960357666 4.396614551544189 C 11.7842960357666 3.943404674530029 11.60781669616699 3.517334461212158 11.28736686706543 3.196874618530273 C 10.96754264831543 2.877040863037109 10.54251003265381 2.700623035430908 10.09029960632324 2.69995641708374 M 10.08772659301758 -4.57763671875e-05 C 12.51589679718018 -4.57763671875e-05 14.48430633544922 1.968404769897461 14.48429679870605 4.396624565124512 C 14.48428630828857 6.824854850769043 12.51586627960205 8.79332447052002 10.08769607543945 8.7933349609375 C 7.659526348114014 8.7933349609375 -0.2528934478759766 5.862874507904053 0.006196022033691406 4.781104564666748 C 0.2652864456176758 3.699334621429443 7.65955638885498 -3.528594970703125e-05 10.08772659301758 -4.57763671875e-05 Z" stroke="none" fill="#fda800"/>
    </g>
  </g>
</svg>
