<svg xmlns="http://www.w3.org/2000/svg" width="21.347" height="17.344" viewBox="0 0 21.347 17.344">
  <path id="twitter_11_" data-name="twitter (11)" d="M21.347,50.053a9.124,9.124,0,0,1-2.522.691,4.352,4.352,0,0,0,1.925-2.419,8.746,8.746,0,0,1-2.775,1.059,4.376,4.376,0,0,0-7.57,2.993,4.506,4.506,0,0,0,.1,1A12.387,12.387,0,0,1,1.486,48.8a4.377,4.377,0,0,0,1.345,5.849,4.322,4.322,0,0,1-1.977-.539v.048a4.4,4.4,0,0,0,3.506,4.3,4.368,4.368,0,0,1-1.147.144,3.869,3.869,0,0,1-.829-.075,4.418,4.418,0,0,0,4.089,3.049,8.793,8.793,0,0,1-5.426,1.867A8.2,8.2,0,0,1,0,63.381a12.321,12.321,0,0,0,6.714,1.964A12.37,12.37,0,0,0,19.17,52.891c0-.193-.007-.38-.016-.566A8.731,8.731,0,0,0,21.347,50.053Z" transform="translate(0 -48)" fill="#fff"/>
</svg>
