<svg xmlns="http://www.w3.org/2000/svg" width="21.587" height="21.587" viewBox="0 0 21.587 21.587">
  <path id="Icon_ionic-logo-whatsapp" data-name="Icon ionic-logo-whatsapp" d="M13.239,2.25a10.557,10.557,0,0,0-10.6,10.516A10.407,10.407,0,0,0,4.163,18.2L2.25,23.837l5.867-1.864a10.616,10.616,0,0,0,15.72-9.208A10.557,10.557,0,0,0,13.239,2.25Zm5.27,14.509a2.737,2.737,0,0,1-1.874,1.208c-.5.026-.511.385-3.221-.792a11.057,11.057,0,0,1-4.468-4.224,5.2,5.2,0,0,1-1-2.817,3,3,0,0,1,1.031-2.2,1.038,1.038,0,0,1,.734-.309c.213,0,.352-.006.509,0s.395-.033.6.513.7,1.887.759,2.023a.491.491,0,0,1,0,.471,1.84,1.84,0,0,1-.287.438c-.141.152-.3.339-.424.455s-.288.268-.14.543a8.11,8.11,0,0,0,1.435,1.915,7.394,7.394,0,0,0,2.125,1.413c.266.145.424.129.589-.045s.705-.759.9-1.02.369-.211.614-.112,1.55.8,1.815.942.443.218.506.332A2.225,2.225,0,0,1,18.509,16.759Z" transform="translate(-2.25 -2.25)" fill="#fff"/>
</svg>
